<?xml version="1.0" encoding="UTF-8" standalone="no"?>
<!DOCTYPE svg PUBLIC "-//W3C//DTD SVG 1.1//EN" "http://www.w3.org/Graphics/SVG/1.1/DTD/svg11.dtd">
<svg width="100%" height="100%" viewBox="0 0 64 32" version="1.1" xmlns="http://www.w3.org/2000/svg" xmlns:xlink="http://www.w3.org/1999/xlink" xml:space="preserve" xmlns:serif="http://www.serif.com/" style="fill-rule:evenodd;clip-rule:evenodd;stroke-linejoin:round;stroke-miterlimit:2;">
    <path d="M32,16C32,24.837 24.837,32 16,32C7.163,32 0,24.837 0,16C0,7.163 7.163,0 16,0C24.837,0 32,7.163 32,16Z" style="fill:rgb(141,141,141);fill-rule:nonzero;"/>
    <path d="M16,30.955C12.005,30.955 8.25,29.399 5.425,26.575C2.601,23.75 1.045,19.995 1.045,16C1.045,12.005 2.601,8.25 5.425,5.425C8.25,2.601 12.005,1.045 16,1.045C19.995,1.045 23.75,2.601 26.575,5.425C29.399,8.25 30.955,12.005 30.955,16C30.955,19.995 29.399,23.75 26.575,26.575C23.75,29.399 19.995,30.955 16,30.955Z" style="fill:white;fill-rule:nonzero;"/>
    <g transform="matrix(0.92302,0,0,0.92302,1.23168,1.23168)">
        <path d="M18.458,15.458C17.004,16.594 16.978,17.387 16.978,18.761C16.978,19.264 16.714,19.845 15.419,19.845C14.335,19.845 13.965,19.449 13.965,18.074C13.965,15.802 14.969,14.718 15.736,14.058C16.608,13.318 18.087,12.499 18.087,11.072C18.087,9.856 17.031,9.275 15.709,9.275C13.014,9.275 13.595,11.31 12.168,11.31C11.455,11.31 10.583,10.834 10.583,9.803C10.583,8.376 12.221,6.262 15.788,6.262C19.171,6.262 21.417,8.138 21.417,10.622C21.417,13.106 19.171,14.903 18.458,15.458ZM17.48,23.703C17.48,24.786 16.581,25.738 15.445,25.738C14.309,25.738 13.437,24.786 13.437,23.703C13.437,22.593 14.335,21.668 15.445,21.668C16.555,21.668 17.48,22.593 17.48,23.703Z" style="fill:rgb(165,165,165);fill-rule:nonzero;"/>
    </g>
    <path d="M64,16C64,24.837 56.837,32 48,32C39.163,32 32,24.837 32,16C32,7.163 39.163,0 48,0C56.837,0 64,7.163 64,16Z" style="fill:rgb(111,111,111);fill-rule:nonzero;"/>
    <path d="M48,30.955C44.005,30.955 40.25,29.399 37.425,26.575C34.601,23.75 33.045,19.995 33.045,16C33.045,12.005 34.601,8.25 37.425,5.425C40.25,2.601 44.005,1.045 48,1.045C51.995,1.045 55.75,2.601 58.575,5.425C61.399,8.25 62.955,12.005 62.955,16C62.955,19.995 61.399,23.75 58.575,26.575C55.75,29.399 51.995,30.955 48,30.955Z" style="fill:white;fill-rule:nonzero;"/>
    <g transform="matrix(0.92302,0,0,0.92302,3.69503,1.23168)">
        <path d="M50.458,15.458C49.004,16.594 48.978,17.387 48.978,18.761C48.978,19.264 48.714,19.845 47.419,19.845C46.335,19.845 45.965,19.449 45.965,18.074C45.965,15.802 46.969,14.718 47.736,14.058C48.608,13.318 50.087,12.499 50.087,11.072C50.087,9.856 49.031,9.275 47.709,9.275C45.014,9.275 45.595,11.31 44.168,11.31C43.455,11.31 42.583,10.834 42.583,9.803C42.583,8.376 44.221,6.262 47.788,6.262C51.171,6.262 53.417,8.138 53.417,10.622C53.417,13.106 51.171,14.903 50.458,15.458ZM49.48,23.703C49.48,24.786 48.581,25.738 47.445,25.738C46.309,25.738 45.437,24.786 45.437,23.703C45.437,22.593 46.335,21.668 47.445,21.668C48.555,21.668 49.48,22.593 49.48,23.703Z" style="fill:rgb(0,188,255);fill-rule:nonzero;"/>
    </g>
</svg>
