<svg width="105" height="114" viewBox="0 0 105 114" fill="none" xmlns="http://www.w3.org/2000/svg">
<path d="M93.0815 112.345H3.01382C2.33596 112.37 1.67107 112.155 1.13717 111.738C0.603275 111.321 0.234915 110.73 0.0974784 110.068C-0.329037 111.84 0.644293 114 3.01382 114H93.0815C95.4547 114 96.4244 111.84 95.9979 110.068C95.8611 110.73 95.4929 111.322 94.9589 111.739C94.4248 112.156 93.7596 112.37 93.0815 112.345Z" fill="#E2E2E2"/>
<path d="M3.01425 112.345H93.082C93.76 112.37 94.4252 112.156 94.9593 111.739C95.4934 111.322 95.8615 110.73 95.9983 110.068C95.8622 109.406 95.4942 108.814 94.96 108.397C94.4258 107.98 93.7602 107.765 93.082 107.792H3.01425C2.33621 107.766 1.67095 107.981 1.1369 108.398C0.602844 108.814 0.234662 109.406 0.0979004 110.068C0.235337 110.73 0.603697 111.321 1.13759 111.738C1.67149 112.155 2.33638 112.37 3.01425 112.345Z" fill="white"/>
<path d="M67.5161 46.0823C76.3964 44.4268 70.5637 25.1203 66.962 21.5226C62.8026 17.6562 54.768 19.5876 49.504 18.4839C43.963 17.6562 37.3101 15.173 34.8166 23.1781C33.4313 27.8685 36.4789 34.4904 37.033 39.1809C37.5871 44.4268 37.033 48.0137 43.4089 47.7377L67.5161 46.0823Z" fill="#0A3470"/>
<path d="M49.9269 57.9503V69.2663H58.0417V57.9503H49.9269Z" fill="#EDA18A"/>
<path d="M40.0113 27.2986C38.8739 38.6146 37.2845 58.0844 52.2855 59.4422C65.4674 60.8 69.1055 49.2553 68.6498 38.6146C68.6498 35.6739 67.2864 29.1065 66.3787 26.1659L40.0113 27.2986Z" fill="#FDB498"/>
<path d="M52.7375 68.8087C57.2797 69.1717 60.5897 67.6397 61.8511 63.3631C60.5849 63.1793 59.2994 63.1695 58.0306 63.334C57.4875 68.4529 50.4554 66.703 49.3727 63.4684C48.2551 63.4494 47.1381 63.537 46.0372 63.7297C46.4637 67.2004 49.5113 68.6199 52.7375 68.8087Z" fill="#0A3470"/>
<path d="M68.063 33.7897C76.7683 30.7765 77.9385 47.4655 67.8734 46.1331C67.9828 43.403 67.9135 37.4637 68.063 33.7897Z" fill="#724BB7"/>
<path d="M37.361 36.3928C38.688 28.2753 45.9387 23.4032 53.8566 22.9603C61.851 22.4993 69.3716 27.099 70.1408 35.4707C70.2866 37.0536 72.7801 37.0681 72.6342 35.4707C70.7277 14.7266 38.1011 16.5018 34.955 35.7503C34.6999 37.3186 37.1022 37.9902 37.361 36.411V36.3928Z" fill="#724BB7"/>
<path d="M36.5664 44.4013C36.4935 47.7232 34.8895 52.5625 38.5276 54.5302C41.7174 56.251 46.07 55.514 49.5332 55.4886C50.718 55.4886 50.7216 53.648 49.5332 53.6553C46.4893 53.6807 43.3724 54.0364 40.3832 53.2922C36.5919 52.3338 38.3417 47.2548 38.4037 44.4122C38.4292 43.2324 36.581 43.236 36.581 44.4122L36.5664 44.4013Z" fill="#653CAD"/>
<path d="M39.5776 33.7897C30.8723 30.7765 29.7021 47.4655 39.7671 46.1331C39.6723 43.403 39.7379 37.4637 39.5776 33.7897Z" fill="#724BB7"/>
<path d="M61.8621 63.3667C61.6421 64.1323 61.3196 64.865 60.9033 65.5449H68.0119C66.12 64.4355 64.0326 63.6961 61.8621 63.3667Z" fill="white"/>
<path d="M26.5341 85.4069H81.5C81.1816 84.1145 80.817 82.8717 80.4063 81.6785H27.8866C27.3835 82.9128 26.9327 84.1556 26.5341 85.4069Z" fill="white"/>
<path d="M46.0481 63.7334C44.2293 64.0588 42.4743 64.6716 40.8497 65.5486H46.5804C46.2988 64.9788 46.1188 64.3646 46.0481 63.7334Z" fill="white"/>
<path d="M23.6031 105.276H84.7371L84.1647 101.548H23.975L23.6031 105.276Z" fill="white"/>
<path d="M29.1917 78.7814H79.2617C78.697 77.5025 78.0554 76.2587 77.3405 75.0566H31.255C30.5024 76.2615 29.8137 77.5048 29.1917 78.7814Z" fill="white"/>
<path d="M24.2631 98.6506H83.7164L83.1441 94.9258H24.6313L24.2631 98.6506Z" fill="white"/>
<path d="M52.7375 68.8087C51.9561 68.7722 51.181 68.6504 50.4263 68.4457H36.7377C35.47 69.5789 34.3095 70.8258 33.2709 72.1705H75.3866C74.3713 70.8265 73.2326 69.5795 71.9854 68.4457H57.0938C55.6782 68.8424 54.1995 68.9656 52.7375 68.8087Z" fill="white"/>
<path d="M24.9594 91.6076L24.9193 92.0288H82.6957L82.364 89.8723C82.2911 89.3423 82.2072 88.8195 82.1161 88.304H25.6921C25.4041 89.4221 25.1598 90.5258 24.9594 91.6076Z" fill="white"/>
<path d="M60.9032 65.5376C60.0387 66.9424 58.6811 67.9775 57.0938 68.4419H71.9853C70.7744 67.3316 69.4443 66.3576 68.0191 65.5376H60.9032Z" fill="#C2BA17"/>
<path d="M46.5804 65.5376H40.8498C39.3674 66.3385 37.9869 67.3136 36.7377 68.4419H50.4263C48.7567 67.9591 47.335 67.0442 46.5804 65.5376Z" fill="#C2BA17"/>
<path d="M31.2549 75.0565H77.3405C76.745 74.0523 76.0927 73.0826 75.3866 72.1522H33.2709C32.5564 73.0816 31.8856 74.0509 31.2549 75.0565Z" fill="#C2BA17"/>
<path d="M27.8865 81.6785H80.4063C80.0418 80.6765 79.6772 79.7144 79.258 78.7742H29.1916C28.725 79.7326 28.2766 80.7019 27.8865 81.6785Z" fill="#C2BA17"/>
<path d="M25.692 88.2895H82.116C81.9411 87.2996 81.7381 86.3315 81.5072 85.3851H26.5341C26.2242 86.3762 25.9399 87.3419 25.692 88.2895Z" fill="#C2BA17"/>
<path d="M24.6312 94.926H83.1441L82.6957 92.0289H24.9192L24.6312 94.926Z" fill="#C2BA17"/>
<path d="M23.975 101.548H84.1648L83.7164 98.6506H24.263L23.975 101.548Z" fill="#C2BA17"/>
<path d="M23.3189 108.173H85.1856L84.7372 105.276H23.6033L23.3189 108.173Z" fill="#C2BA17"/>
<path d="M45.0457 42.1543C45.895 39.515 49.1978 39.6421 50.4919 41.8603C50.5374 41.9231 50.6048 41.9669 50.6809 41.9831C50.757 41.9992 50.8365 41.9866 50.9038 41.9477C50.9711 41.9087 51.0214 41.8462 51.045 41.7724C51.0686 41.6985 51.0638 41.6186 51.0315 41.5481C49.453 38.8398 45.4539 38.8579 44.4442 41.9873C44.3239 42.3722 44.9254 42.5319 45.0457 42.1543Z" fill="#0A3470"/>
<path d="M58.4791 41.8783C59.3285 39.239 62.6313 39.3661 63.9254 41.5843C63.9709 41.6471 64.0383 41.6909 64.1144 41.7071C64.1905 41.7232 64.2699 41.7106 64.3372 41.6717C64.4045 41.6327 64.4549 41.5702 64.4785 41.4964C64.5021 41.4225 64.4972 41.3426 64.4649 41.2721C62.8828 38.5638 58.8838 38.5819 57.8776 41.7113C57.7537 42.0962 58.3552 42.2559 58.4791 41.8783Z" fill="#0A3470"/>
<path d="M54.491 54.4287C57.7719 54.3016 61.2314 51.6768 62.0188 48.453C62.2084 47.6761 61.0054 47.3458 60.8195 48.1227C60.1633 50.7983 57.2396 53.0818 54.491 53.1871C53.689 53.2197 53.6853 54.4613 54.491 54.4287Z" fill="#E89A82"/>
<path d="M38.4182 27.5928C44.2509 33.9388 61.4173 35.0424 69.1784 35.0424C69.1784 35.0424 71.9489 23.7301 56.4194 22.9024C40.8898 22.0746 38.4182 27.5928 38.4182 27.5928Z" fill="#0A3470"/>
<path d="M55.2528 41.4935L56.2845 47.4147C56.3676 47.9252 56.2453 48.4477 55.9439 48.8688C55.6426 49.29 55.1866 49.5758 54.675 49.6642C54.1633 49.7527 53.6373 49.6366 53.2111 49.3411C52.7849 49.0457 52.4929 48.5948 52.3985 48.0863C52.3602 47.8641 52.3602 47.6369 52.3985 47.4147L53.4301 41.4935C53.4685 41.2806 53.5808 41.0879 53.7474 40.9492C53.914 40.8104 54.1243 40.7344 54.3415 40.7344C54.5587 40.7344 54.7689 40.8104 54.9355 40.9492C55.1021 41.0879 55.2145 41.2806 55.2528 41.4935Z" fill="#E89A82"/>
<path d="M79.9543 70.2317H77.8764C80.1111 70.2317 81.9228 71.702 81.9228 73.4991V102.085C81.9228 103.9 80.1001 105.352 77.8764 105.352H79.9543C82.189 105.352 84.0007 103.9 84.0007 102.085V73.5136C84.0007 71.702 82.189 70.2317 79.9543 70.2317Z" fill="#829AB1"/>
<path d="M24.5802 102.085V73.5137C24.5802 71.6985 26.4029 70.2463 28.6266 70.2463H26.9643C24.7296 70.2463 22.9178 71.7167 22.9178 73.5137V102.085C22.9178 103.9 24.7406 105.352 26.9643 105.352H28.6412C26.3919 105.352 24.5802 103.9 24.5802 102.085Z" fill="#BCCCDC"/>
<path d="M81.9229 102.085V73.5137C81.9229 71.6985 80.1002 70.2463 77.8764 70.2463H28.6412C26.4066 70.2463 24.5948 71.7167 24.5948 73.5137V102.085C24.5948 103.9 26.4175 105.352 28.6412 105.352H77.891C80.1111 105.352 81.9229 103.9 81.9229 102.085Z" fill="#9FB3C8"/>
<path d="M46.1976 105.516L42.9495 105.4L47.324 88.2096C47.4059 87.6717 47.5935 87.1552 47.8761 86.6897C48.1588 86.2241 48.5309 85.8187 48.9711 85.4967C49.4113 85.1746 49.9111 84.9422 50.4417 84.8128C50.9722 84.6834 51.5232 84.6595 52.0631 84.7425L54.5274 85.1056C55.0673 85.1875 55.5857 85.3747 56.0529 85.6563C56.5201 85.9379 56.927 86.3084 57.2504 86.7468C57.5737 87.1851 57.8071 87.6826 57.9372 88.2108C58.0674 88.739 58.0917 89.2875 58.0088 89.8251L57.9687 106.565C57.9687 106.594 57.9687 106.619 57.9687 106.648L46.1976 105.516Z" fill="#627D98"/>
<path d="M61.1402 105.273C61.1407 105.816 61.0336 106.355 60.8249 106.857C60.6163 107.36 60.3103 107.817 59.9243 108.201C59.5384 108.586 59.0801 108.891 58.5756 109.099C58.0712 109.308 57.5305 109.415 56.9844 109.415H49.504C48.9579 109.415 48.4172 109.308 47.9128 109.099C47.4084 108.891 46.9501 108.586 46.5641 108.201C46.1782 107.817 45.8721 107.36 45.6635 106.857C45.4549 106.355 45.3477 105.816 45.3482 105.273L47.8417 88.7178C47.8412 88.174 47.9483 87.6355 48.157 87.1329C48.3656 86.6304 48.6716 86.1737 49.0576 85.789C49.4435 85.4043 49.9018 85.0992 50.4063 84.8909C50.9107 84.6827 51.4514 84.5756 51.9975 84.5756H54.491C55.037 84.5756 55.5777 84.6827 56.0821 84.8909C56.5866 85.0992 57.0449 85.4043 57.4308 85.789C57.8168 86.1737 58.1228 86.6304 58.3315 87.1329C58.5401 87.6355 58.6472 88.174 58.6467 88.7178L61.1402 105.273Z" fill="#829AB1"/>
<path d="M12.7873 90.1047L8.77728 89.3786C8.80007 89.8726 8.85242 90.3648 8.93404 90.8525L12.5066 91.4988L17.4716 89.1898C17.5919 88.7251 17.694 88.2532 17.7779 87.7776L12.7909 90.1047H12.7873Z" fill="#917F17"/>
<path d="M12.6231 92.3119L9.11255 91.6765C9.24409 92.2033 9.41968 92.7182 9.63749 93.2158L12.346 93.7059L16.5638 91.7455C16.8029 91.2385 17.0098 90.7172 17.1835 90.1844L12.6231 92.3082V92.3119Z" fill="#917F17"/>
<path d="M13.1189 85.6756L9.28028 84.9822C9.15397 85.44 9.05176 85.9041 8.97406 86.3726L12.8455 87.0733L18.0694 84.6373C18.0694 84.2053 18.0694 83.7878 18.0694 83.3739L13.1226 85.6756H13.1189Z" fill="#917F17"/>
<path d="M12.9658 87.8863L8.87562 87.1603C8.81939 87.6351 8.78897 88.1126 8.78448 88.5906L12.6887 89.2949L17.9236 86.8372C17.9819 86.3906 18.022 85.9477 18.0475 85.5084L12.9439 87.8791L12.9658 87.8863Z" fill="#917F17"/>
<path d="M13.6111 73.4047C12.707 72.3737 11.7337 71.3499 10.764 70.239C10.9668 71.3176 11.0886 72.4098 11.1285 73.5064L12.7434 73.8004L13.6111 73.4047Z" fill="#917F17"/>
<path d="M15.1057 75.2418C14.7995 74.8327 14.4787 74.4298 14.1433 74.0328L12.8674 74.6246L11.165 74.316C11.165 74.7517 11.165 75.1873 11.1431 75.6193L13.4069 76.0296L15.1057 75.2418Z" fill="#917F17"/>
<path d="M12.4555 94.5229L10.0896 94.0981C10.491 94.7708 10.9981 95.375 11.5915 95.8879C12.1857 95.6955 13.283 95.5612 13.8116 95.1618C14.6636 94.555 15.3839 93.7833 15.9296 92.8928L12.4591 94.5084L12.4555 94.5229Z" fill="#917F17"/>
<path d="M13.6184 79.0428L10.8369 78.5382C10.764 79.0065 10.6802 79.4712 10.5854 79.9396L13.3304 80.4369L17.0779 78.6943C16.9357 78.3313 16.7753 77.9682 16.604 77.6451L13.6075 79.0392L13.6184 79.0428Z" fill="#917F17"/>
<path d="M13.4507 81.2537L10.4141 80.7055C10.312 81.1666 10.199 81.6277 10.0787 82.0924L13.17 82.6514L17.6721 80.5531C17.581 80.1682 17.4716 79.7943 17.3513 79.4313L13.4434 81.2465L13.4507 81.2537Z" fill="#917F17"/>
<path d="M13.5199 76.8464L11.092 76.4071C11.0556 76.8573 11.0046 77.3111 10.9462 77.7612L13.498 78.2223L16.2321 76.9517C16.0207 76.5886 15.7947 76.2256 15.5613 75.8879L13.5199 76.8464Z" fill="#917F17"/>
<path d="M13.2866 83.4647L9.88908 82.8439C9.76514 83.2977 9.6339 83.7588 9.49902 84.2198L13.0096 84.8551L18.0002 82.5317C17.9637 82.1432 17.9163 81.7657 17.8544 81.4099C17.8544 81.3845 17.8544 81.3627 17.8544 81.3373L13.2866 83.4611V83.4647Z" fill="#917F17"/>
<path d="M9.63751 93.216C9.77127 93.5183 9.92219 93.8129 10.0895 94.0982L12.4554 94.5266L15.9259 92.911C16.1589 92.5371 16.3706 92.1505 16.5602 91.7529L12.3424 93.7134L9.63751 93.216Z" fill="#776C0A"/>
<path d="M8.95593 90.8488C9.00332 91.1283 9.06165 91.4042 9.12727 91.6765L12.6378 92.3118L17.1983 90.1881C17.3076 89.8613 17.406 89.5273 17.4935 89.1897L12.5285 91.4986L8.95593 90.8488Z" fill="#776C0A"/>
<path d="M8.77362 88.5798C8.77362 88.8437 8.77362 89.1087 8.77362 89.3749L12.7836 90.101L17.7778 87.7775C17.8325 87.4689 17.8763 87.1567 17.9164 86.8481L12.6706 89.2878L8.77362 88.5798Z" fill="#776C0A"/>
<path d="M8.97405 86.3727C8.9303 86.6268 8.89385 86.8882 8.86469 87.1496L12.9549 87.8757L18.0585 85.505C18.0585 85.2073 18.0876 84.9169 18.0913 84.6265L12.8564 87.0625L8.97405 86.3727Z" fill="#776C0A"/>
<path d="M9.499 84.227C9.46619 84.3359 9.43703 84.4448 9.40057 84.5573C9.36412 84.6699 9.31673 84.8405 9.28027 84.9821L13.1189 85.6755L18.0694 83.3738C18.0694 83.0906 18.033 82.8111 18.0074 82.5388L13.0168 84.8623L9.499 84.227Z" fill="#776C0A"/>
<path d="M10.086 82.0924C10.024 82.3429 9.95836 82.5971 9.8891 82.8512L13.2866 83.4647L17.8398 81.3482C17.7924 81.0795 17.7377 80.8145 17.6794 80.5568L13.1773 82.6551L10.086 82.0924Z" fill="#776C0A"/>
<path d="M10.5853 79.9396L10.414 80.7056L13.4434 81.2538L17.3513 79.4386C17.2711 79.1881 17.1799 78.9412 17.0815 78.7125L13.3303 80.437L10.5853 79.9396Z" fill="#776C0A"/>
<path d="M10.9463 77.7613C10.9123 78.0178 10.8758 78.2756 10.8369 78.5346L13.6184 79.0392L16.6113 77.6451C16.491 77.4091 16.367 77.1804 16.2467 76.9553L13.5127 78.226L10.9463 77.7613Z" fill="#776C0A"/>
<path d="M13.52 76.8463L15.5724 75.8915C15.4193 75.6737 15.2662 75.4559 15.1058 75.2417L13.407 76.0331L11.1432 75.6229C11.1432 75.8843 11.114 76.1493 11.0922 76.4107L13.52 76.85V76.8463Z" fill="#776C0A"/>
<path d="M12.8674 74.6246L14.1433 74.0328C13.9683 73.8259 13.7788 73.6226 13.6111 73.4156L12.7581 73.815L11.1431 73.5209C11.1431 73.7896 11.1431 74.0546 11.165 74.3196L12.8674 74.6282V74.6246Z" fill="#776C0A"/>
<path d="M10.3922 90.2317L6.45148 91.2373C6.6779 91.6783 6.93112 92.105 7.20973 92.5152L10.7276 91.6149L14.2709 87.4545C14.1834 86.9825 14.0814 86.5106 13.9574 86.0422L10.3922 90.2317Z" fill="#C2BA17"/>
<path d="M11.1686 92.312L7.71277 93.1942C8.0518 93.6194 8.42749 94.0142 8.83556 94.3741L11.5077 93.6952L14.5188 90.1592C14.5244 89.6 14.494 89.041 14.4277 88.4856L11.1723 92.3084L11.1686 92.312Z" fill="#C2BA17"/>
<path d="M8.83921 86.0749L5.0589 87.0406C5.13607 87.5089 5.23706 87.973 5.36147 88.431L9.17459 87.4581L12.9112 83.0689C12.7398 82.6768 12.5466 82.2957 12.3643 81.9326L8.83921 86.0713V86.0749Z" fill="#C2BA17"/>
<path d="M9.61567 88.1552L5.58746 89.1826C5.73744 89.6363 5.91021 90.0822 6.10512 90.5186L9.95105 89.5384L13.6949 85.1383C13.56 84.7136 13.4106 84.2924 13.2502 83.8822L9.60473 88.1516L9.61567 88.1552Z" fill="#C2BA17"/>
<path d="M4.15122 74.7298C2.89354 74.1671 1.59942 73.6407 0.236023 73.0344C0.87671 73.9304 1.45058 74.872 1.95302 75.8516L3.54243 75.445L4.15122 74.7298Z" fill="#C2BA17"/>
<path d="M6.27281 75.7682C5.82442 75.525 5.36145 75.2926 4.89119 75.0712L3.98348 76.1385L2.30658 76.5669C2.4925 76.959 2.67112 77.3583 2.83152 77.7577L5.06253 77.1877L6.27281 75.7682Z" fill="#C2BA17"/>
<path d="M11.9415 94.3886L9.61572 94.984C10.2604 95.4314 10.9748 95.77 11.7301 95.986C12.1858 95.5685 13.1299 94.9877 13.4471 94.4177C13.9679 93.5131 14.299 92.5127 14.4204 91.4771L11.9415 94.3814V94.3886Z" fill="#C2BA17"/>
<path d="M6.51348 79.8414L3.77576 80.5385C3.90335 80.9923 4.02365 81.4533 4.1403 81.918L6.85615 81.2246L9.5319 78.0807C9.24755 77.812 8.95592 77.5615 8.66064 77.3256L6.52077 79.8378L6.51348 79.8414Z" fill="#C2BA17"/>
<path d="M7.28987 81.9181L4.30426 82.6805C4.40269 83.1416 4.49747 83.6063 4.58131 84.0782L7.6216 83.3013L10.8369 79.5257C10.5926 79.2135 10.3375 78.9194 10.0786 78.6399L7.28622 81.9073L7.28987 81.9181Z" fill="#C2BA17"/>
<path d="M5.50364 77.8848L3.12317 78.4875C3.27992 78.9122 3.42209 79.3442 3.55698 79.7763L6.07962 79.1337L8.02992 76.8429C7.68725 76.596 7.33364 76.3709 6.97639 76.1567L5.50364 77.8848Z" fill="#C2BA17"/>
<path d="M8.06271 83.9983L4.71985 84.8514C4.7964 85.3161 4.86931 85.7881 4.94222 86.2637L8.39809 85.3851L11.9633 81.1993C11.7628 80.8616 11.5623 80.5422 11.3545 80.2408C11.3433 80.2201 11.3298 80.2006 11.3144 80.1827L8.06271 83.9983Z" fill="#C2BA17"/>
<path d="M8.83557 94.3741C9.0816 94.5946 9.34223 94.7984 9.6157 94.9841L11.9415 94.3887L14.4204 91.4843C14.4786 91.0474 14.509 90.6073 14.5115 90.1665L11.5077 93.6953L8.83557 94.3741Z" fill="#AA9F15"/>
<path d="M7.20972 92.5153C7.37012 92.7476 7.53781 92.9727 7.71279 93.1941L11.1687 92.312L14.424 88.4855C14.3876 88.1442 14.3365 87.7994 14.2746 87.4545L10.7312 91.6149L7.20972 92.5153Z" fill="#AA9F15"/>
<path d="M6.10516 90.5185C6.21453 90.7617 6.32754 91.0014 6.46971 91.2446L10.4104 90.239L13.9757 86.0495C13.8955 85.7469 13.808 85.4456 13.7132 85.1455L9.9511 89.5383L6.10516 90.5185Z" fill="#AA9F15"/>
<path d="M5.36151 88.4311C5.43077 88.6816 5.50733 88.9321 5.58753 89.1826L9.61573 88.1552L13.2612 83.8858C13.1554 83.6099 13.0424 83.3377 12.9221 83.0726L9.17463 87.4582L5.36151 88.4311Z" fill="#AA9F15"/>
<path d="M4.94592 86.2637C4.94592 86.3763 4.97873 86.4888 4.99696 86.605C5.01519 86.7212 5.03706 86.8954 5.06258 87.0406L8.84289 86.0749L12.368 81.9363C12.2368 81.6822 12.1019 81.4389 11.967 81.2102L8.39815 85.3852L4.94592 86.2637Z" fill="#AA9F15"/>
<path d="M4.5813 84.0781C4.62869 84.3358 4.67608 84.5936 4.71983 84.8514L8.06269 83.9982L11.3144 80.1826C11.1577 79.9539 11.0009 79.7397 10.8369 79.5292L7.62159 83.3048L4.5813 84.0781Z" fill="#AA9F15"/>
<path d="M4.13293 81.9181C4.19126 82.1686 4.24959 82.4264 4.30427 82.6805L7.28988 81.9181L10.0823 78.6508C9.90001 78.4583 9.71774 78.2877 9.52818 78.0917L6.85243 81.2356L4.13293 81.9181Z" fill="#AA9F15"/>
<path d="M3.54968 79.7869C3.62988 80.0374 3.70279 80.2879 3.7757 80.5384L6.51342 79.8414L8.65329 77.3291C8.4455 77.1658 8.23771 77.006 8.02263 76.8572L6.07232 79.148L3.54968 79.7869Z" fill="#AA9F15"/>
<path d="M5.50364 77.8847L6.96182 76.1675C6.73216 76.0296 6.50249 75.8953 6.26554 75.7682L5.05526 77.1913L2.83154 77.7613C2.92997 78.0045 3.02475 78.2514 3.11589 78.4874L5.50364 77.8775V77.8847Z" fill="#AA9F15"/>
<path d="M3.9835 76.1385L4.89121 75.0711L4.16212 74.7299L3.55334 75.4559L1.96393 75.8625C2.08423 76.0985 2.20453 76.3381 2.32847 76.5886L4.00537 76.1602L3.9835 76.1385Z" fill="#AA9F15"/>
<path d="M18.095 93.1687C18.1103 93.2891 18.1188 93.4103 18.1205 93.5317L16.0098 103.744C16.0098 104.54 15.6922 105.304 15.1268 105.867C14.5614 106.43 13.7946 106.746 12.995 106.746H7.86227C7.23752 106.746 6.62835 106.552 6.11975 106.191C6.21201 106.916 6.56649 107.582 7.11677 108.065C7.66705 108.549 8.37537 108.815 9.109 108.816H14.2418C15.0413 108.816 15.8082 108.499 16.3735 107.936C16.9389 107.373 17.2565 106.61 17.2565 105.813L19.3673 95.6011C19.3653 95.124 19.2488 94.6543 19.0275 94.2311C18.8062 93.808 18.4865 93.4437 18.095 93.1687Z" fill="#783F26"/>
<path d="M12.995 106.761C13.7946 106.761 14.5614 106.445 15.1268 105.881C15.6922 105.318 16.0098 104.555 16.0098 103.759L18.1205 93.5462C18.1188 93.4248 18.1103 93.3036 18.095 93.1831C17.5864 92.8218 16.9772 92.6276 16.3524 92.6277H7.00556C6.20599 92.6277 5.43917 92.944 4.87379 93.5071C4.30841 94.0701 3.99078 94.8338 3.99078 95.63L6.10149 105.842C6.10316 105.964 6.11168 106.085 6.12701 106.205C6.63358 106.565 7.23998 106.759 7.86223 106.761H12.995Z" fill="#8C5234"/>
<path d="M88.9913 30.3761C83.9862 30.3761 79.9324 33.2006 79.9324 36.6894C79.9324 38.3848 80.8948 39.9168 82.4514 41.0459L79.9324 46.4915L85.8745 42.6106C86.895 42.873 87.9447 43.0059 88.9986 43.0063C94.0002 43.0063 98.0575 40.1782 98.0575 36.6894C98.0575 33.2006 93.9929 30.3761 88.9913 30.3761Z" fill="white"/>
<path d="M86.3739 36.4425C86.3775 36.6215 86.3275 36.7974 86.2303 36.9479C86.133 37.0984 85.9929 37.2167 85.8278 37.2875C85.6628 37.3583 85.4802 37.3785 85.3036 37.3456C85.1269 37.3126 84.9641 37.228 84.836 37.1025C84.7079 36.9769 84.6202 36.8162 84.5843 36.6409C84.5483 36.4655 84.5656 36.2834 84.634 36.1179C84.7025 35.9524 84.8189 35.8109 84.9684 35.7116C85.1179 35.6123 85.2938 35.5596 85.4735 35.5603C85.7095 35.5612 85.9358 35.654 86.1041 35.8188C86.2723 35.9837 86.3692 36.2075 86.3739 36.4425Z" fill="#0A3470"/>
<path d="M89.8846 36.4426C89.8882 36.6218 89.838 36.7981 89.7404 36.9487C89.6428 37.0994 89.5022 37.2176 89.3367 37.2882C89.1712 37.3588 88.9883 37.3786 88.8115 37.3451C88.6346 37.3115 88.4718 37.2261 88.344 37.0999C88.2162 36.9736 88.1291 36.8122 88.094 36.6364C88.0588 36.4605 88.0772 36.2782 88.1468 36.1129C88.2163 35.9475 88.3339 35.8065 88.4844 35.7081C88.6348 35.6097 88.8114 35.5582 88.9914 35.5604C89.2262 35.5631 89.4506 35.6568 89.6173 35.8214C89.784 35.986 89.8798 36.2088 89.8846 36.4426Z" fill="#0A3470"/>
<path d="M93.4096 36.4425C93.4133 36.6215 93.3632 36.7974 93.266 36.9479C93.1687 37.0984 93.0286 37.2167 92.8635 37.2875C92.6985 37.3583 92.5159 37.3785 92.3393 37.3456C92.1626 37.3126 91.9998 37.228 91.8717 37.1025C91.7436 36.9769 91.656 36.8162 91.62 36.6409C91.584 36.4655 91.6013 36.2834 91.6698 36.1179C91.7382 35.9524 91.8546 35.8109 92.0041 35.7116C92.1536 35.6123 92.3295 35.5596 92.5092 35.5603C92.7455 35.5603 92.9724 35.6528 93.1408 35.8178C93.3093 35.9828 93.4058 36.2072 93.4096 36.4425Z" fill="#0A3470"/>
<path d="M78.7768 12.2796C78.6801 12.2796 78.5874 12.2413 78.519 12.1732C78.4506 12.1052 78.4122 12.0128 78.4122 11.9165V7.7815C78.4122 7.68521 78.4506 7.59287 78.519 7.52479C78.5874 7.45671 78.6801 7.41846 78.7768 7.41846C78.8735 7.41846 78.9662 7.45671 79.0345 7.52479C79.1029 7.59287 79.1413 7.68521 79.1413 7.7815V11.9165C79.1413 12.0128 79.1029 12.1052 79.0345 12.1732C78.9662 12.2413 78.8735 12.2796 78.7768 12.2796Z" fill="#EAE2F8"/>
<path d="M80.851 10.2103H76.6989C76.6022 10.2103 76.5095 10.1721 76.4411 10.104C76.3728 10.0359 76.3344 9.94358 76.3344 9.84729C76.3344 9.75101 76.3728 9.65867 76.4411 9.59058C76.5095 9.5225 76.6022 9.48425 76.6989 9.48425H80.851C80.9477 9.48425 81.0404 9.5225 81.1088 9.59058C81.1772 9.65867 81.2156 9.75101 81.2156 9.84729C81.2156 9.94358 81.1772 10.0359 81.1088 10.104C81.0404 10.1721 80.9477 10.2103 80.851 10.2103Z" fill="#EAE2F8"/>
<path d="M86.8734 3.29442C86.8734 3.74821 86.7383 4.19181 86.4851 4.56913C86.232 4.94644 85.8721 5.24052 85.4511 5.41418C85.0302 5.58784 84.5669 5.63328 84.12 5.54475C83.6731 5.45622 83.2626 5.23769 82.9404 4.91681C82.6182 4.59593 82.3987 4.18711 82.3098 3.74204C82.2209 3.29696 82.2666 2.83563 82.4409 2.41638C82.6153 1.99713 82.9106 1.63879 83.2895 1.38668C83.6684 1.13457 84.1138 1 84.5695 1C85.1805 1 85.7665 1.24173 86.1986 1.67202C86.6307 2.10231 86.8734 2.6859 86.8734 3.29442V3.29442Z" stroke="#EAE2F8" stroke-miterlimit="10"/>
<path d="M89.2393 10.9944C89.2393 11.2213 89.1717 11.4431 89.0451 11.6317C88.9186 11.8204 88.7386 11.9674 88.5281 12.0543C88.3177 12.1411 88.086 12.1638 87.8626 12.1195C87.6391 12.0753 87.4339 11.966 87.2728 11.8056C87.1117 11.6451 87.0019 11.4407 86.9575 11.2182C86.9131 10.9957 86.9359 10.765 87.023 10.5554C87.1102 10.3457 87.2579 10.1666 87.4473 10.0405C87.6368 9.91446 87.8595 9.84717 88.0873 9.84717C88.2387 9.84669 88.3887 9.87604 88.5287 9.93352C88.6687 9.99101 88.7959 10.0755 88.9029 10.1821C89.01 10.2887 89.0948 10.4154 89.1526 10.5548C89.2103 10.6942 89.2398 10.8436 89.2393 10.9944Z" fill="#EAE2F8"/>
<path d="M25.9071 20.5859C25.9071 21.0397 25.772 21.4833 25.5188 21.8606C25.2656 22.2379 24.9058 22.532 24.4848 22.7057C24.0639 22.8793 23.6006 22.9248 23.1537 22.8363C22.7068 22.7477 22.2963 22.5292 21.9741 22.2083C21.6518 21.8874 21.4324 21.4786 21.3435 21.0335C21.2546 20.5885 21.3003 20.1271 21.4746 19.7079C21.649 19.2886 21.9443 18.9303 22.3232 18.6782C22.7021 18.4261 23.1475 18.2915 23.6032 18.2915C24.2142 18.2915 24.8002 18.5332 25.2323 18.9635C25.6644 19.3938 25.9071 19.9774 25.9071 20.5859V20.5859Z" stroke="#EAE2F8" stroke-miterlimit="10"/>
<path d="M32.407 18.2915C32.4048 18.5179 32.3354 18.7387 32.2075 18.9259C32.0796 19.1131 31.899 19.2584 31.6883 19.3436C31.4776 19.4288 31.2464 19.4499 31.0236 19.4045C30.8009 19.359 30.5967 19.2489 30.4367 19.088C30.2766 18.9271 30.168 18.7227 30.1244 18.5005C30.0809 18.2782 30.1043 18.0481 30.1918 17.8391C30.2793 17.6301 30.427 17.4516 30.6162 17.326C30.8053 17.2005 31.0276 17.1334 31.255 17.1334C31.4072 17.1334 31.5579 17.1634 31.6984 17.2218C31.8388 17.2801 31.9663 17.3656 32.0734 17.4733C32.1806 17.581 32.2652 17.7087 32.3224 17.8492C32.3797 17.9896 32.4084 18.14 32.407 18.2915Z" fill="#EAE2F8"/>
<path d="M102.561 70.1476C102.464 70.1476 102.372 70.1094 102.303 70.0413C102.235 69.9732 102.197 69.8809 102.197 69.7846V65.6495C102.197 65.5533 102.235 65.4609 102.303 65.3928C102.372 65.3247 102.464 65.2865 102.561 65.2865C102.658 65.2865 102.751 65.3247 102.819 65.3928C102.887 65.4609 102.926 65.5533 102.926 65.6495V69.7846C102.926 69.8809 102.887 69.9732 102.819 70.0413C102.751 70.1094 102.658 70.1476 102.561 70.1476Z" fill="#EAE2F8"/>
<path d="M104.635 68.0783H100.487C100.39 68.0783 100.298 68.04 100.229 67.9719C100.161 67.9038 100.122 67.8115 100.122 67.7152C100.122 67.6189 100.161 67.5266 100.229 67.4585C100.298 67.3904 100.39 67.3522 100.487 67.3522H104.635C104.732 67.3522 104.825 67.3904 104.893 67.4585C104.962 67.5266 105 67.6189 105 67.7152C105 67.8115 104.962 67.9038 104.893 67.9719C104.825 68.04 104.732 68.0783 104.635 68.0783Z" fill="#EAE2F8"/>
<path d="M95.3141 70.1295C95.3141 70.5833 95.1789 71.0269 94.9258 71.4042C94.6726 71.7815 94.3128 72.0756 93.8918 72.2493C93.4708 72.4229 93.0076 72.4684 92.5607 72.3798C92.1138 72.2913 91.7032 72.0728 91.381 71.7519C91.0588 71.431 90.8394 71.0222 90.7505 70.5771C90.6616 70.132 90.7072 69.6707 90.8816 69.2515C91.056 68.8322 91.3513 68.4739 91.7302 68.2218C92.109 67.9697 92.5545 67.8351 93.0101 67.8351C93.6212 67.8351 94.2072 68.0768 94.6393 68.5071C95.0713 68.9374 95.3141 69.521 95.3141 70.1295V70.1295Z" stroke="#EAE2F8" stroke-miterlimit="10"/>
<path d="M100.706 77.8987C100.706 78.1256 100.638 78.3474 100.512 78.536C100.385 78.7247 100.205 78.8717 99.9945 78.9586C99.784 79.0454 99.5524 79.0681 99.329 79.0238C99.1055 78.9796 98.9002 78.8703 98.7391 78.7099C98.578 78.5494 98.4683 78.345 98.4239 78.1225C98.3794 77.9 98.4022 77.6693 98.4894 77.4597C98.5766 77.25 98.7243 77.0709 98.9137 76.9448C99.1031 76.8188 99.3259 76.7515 99.5537 76.7515C99.7051 76.751 99.8551 76.7803 99.9951 76.8378C100.135 76.8953 100.262 76.9798 100.369 77.0864C100.476 77.193 100.561 77.3197 100.619 77.4591C100.677 77.5985 100.706 77.7479 100.706 77.8987Z" fill="#EAE2F8"/>
<path d="M100.706 61.8269C100.706 62.0538 100.638 62.2756 100.512 62.4643C100.385 62.6529 100.205 62.8 99.9945 62.8868C99.784 62.9736 99.5524 62.9963 99.329 62.9521C99.1055 62.9078 98.9002 62.7985 98.7391 62.6381C98.578 62.4777 98.4683 62.2732 98.4239 62.0507C98.3794 61.8282 98.4022 61.5975 98.4894 61.3879C98.5766 61.1783 98.7243 60.9991 98.9137 60.873C99.1031 60.747 99.3259 60.6797 99.5537 60.6797C99.7051 60.6792 99.8551 60.7086 99.9951 60.766C100.135 60.8235 100.262 60.908 100.369 61.0146C100.476 61.1213 100.561 61.2479 100.619 61.3873C100.677 61.5267 100.706 61.6761 100.706 61.8269Z" fill="#EAE2F8"/>
<path d="M6.12699 61.4425C6.03031 61.4425 5.93759 61.4043 5.86922 61.3362C5.80086 61.2681 5.76245 61.1758 5.76245 61.0795V56.9445C5.76245 56.8482 5.80086 56.7558 5.86922 56.6878C5.93759 56.6197 6.03031 56.5814 6.12699 56.5814C6.22368 56.5814 6.3164 56.6197 6.38476 56.6878C6.45313 56.7558 6.49154 56.8482 6.49154 56.9445V61.0795C6.49154 61.1758 6.45313 61.2681 6.38476 61.3362C6.3164 61.4043 6.22368 61.4425 6.12699 61.4425Z" fill="#EAE2F8"/>
<path d="M8.20486 59.3768H4.05271C3.95603 59.3768 3.86331 59.3386 3.79494 59.2705C3.72658 59.2024 3.68817 59.1101 3.68817 59.0138C3.68817 58.9175 3.72658 58.8252 3.79494 58.7571C3.86331 58.689 3.95603 58.6508 4.05271 58.6508H8.20486C8.30155 58.6508 8.39427 58.689 8.46263 58.7571C8.531 58.8252 8.56941 58.9175 8.56941 59.0138C8.56941 59.1101 8.531 59.2024 8.46263 59.2705C8.39427 59.3386 8.30155 59.3768 8.20486 59.3768Z" fill="#EAE2F8"/>
<path d="M19.3927 59.5655C19.3927 60.0193 19.2576 60.4629 19.0044 60.8402C18.7512 61.2176 18.3914 61.5116 17.9704 61.6853C17.5495 61.859 17.0862 61.9044 16.6393 61.8159C16.1924 61.7273 15.7819 61.5088 15.4597 61.1879C15.1374 60.867 14.918 60.4582 14.8291 60.0132C14.7402 59.5681 14.7858 59.1068 14.9602 58.6875C15.1346 58.2683 15.4299 57.9099 15.8088 57.6578C16.1877 57.4057 16.6331 57.2711 17.0888 57.2711C17.6998 57.2711 18.2858 57.5129 18.7179 57.9431C19.1499 58.3734 19.3927 58.957 19.3927 59.5655V59.5655Z" stroke="#EAE2F8" stroke-miterlimit="10"/>
<path d="M10.651 65.7339C10.651 65.9608 10.5834 66.1826 10.4568 66.3712C10.3302 66.5599 10.1503 66.7069 9.93984 66.7938C9.72935 66.8806 9.49773 66.9033 9.27427 66.859C9.05081 66.8148 8.84555 66.7055 8.68445 66.5451C8.52334 66.3846 8.41363 66.1802 8.36918 65.9577C8.32473 65.7351 8.34754 65.5045 8.43473 65.2949C8.52192 65.0852 8.66957 64.9061 8.85901 64.78C9.04845 64.6539 9.27117 64.5867 9.499 64.5867C9.80423 64.5876 10.0967 64.7088 10.3125 64.9237C10.5283 65.1387 10.65 65.4299 10.651 65.7339Z" fill="#EAE2F8"/>
</svg>
