<svg width="16" height="16" viewBox="0 0 16 16" fill="none" xmlns="http://www.w3.org/2000/svg">
<path d="M8.00004 1.33289C4.32004 1.33289 1.33337 4.32022 1.33337 7.99955C1.33337 11.6802 4.32004 14.6662 8.00004 14.6662C11.6867 14.6662 14.6667 11.6802 14.6667 7.99955C14.6667 4.32022 11.6867 1.33289 8.00004 1.33289Z" fill="#84C5F4"/>
<path d="M7.64697 5.213C7.57364 5.213 7.5113 5.191 7.45997 5.147C7.41597 5.09567 7.39397 5.03333 7.39397 4.96V4.366C7.39397 4.29267 7.41597 4.23033 7.45997 4.179C7.5113 4.12767 7.57364 4.102 7.64697 4.102H8.33997C8.4133 4.102 8.47564 4.12767 8.52697 4.179C8.5783 4.23033 8.60397 4.29267 8.60397 4.366V4.96C8.60397 5.03333 8.5783 5.09567 8.52697 5.147C8.47564 5.191 8.4133 5.213 8.33997 5.213H7.64697ZM7.73497 12C7.66164 12 7.5993 11.978 7.54797 11.934C7.50397 11.8827 7.48197 11.8203 7.48197 11.747V6.533C7.48197 6.45967 7.50397 6.401 7.54797 6.357C7.5993 6.30567 7.66164 6.28 7.73497 6.28H8.26297C8.3363 6.28 8.39497 6.30567 8.43897 6.357C8.4903 6.401 8.51597 6.45967 8.51597 6.533V11.747C8.51597 11.8203 8.4903 11.8827 8.43897 11.934C8.39497 11.978 8.3363 12 8.26297 12H7.73497Z" fill="white"/>
</svg>
