<svg width="24" height="24" viewBox="0 0 24 24" fill="none" xmlns="http://www.w3.org/2000/svg">
<path fill-rule="evenodd" clip-rule="evenodd" d="M16.2 10.5C16.2 13.648 13.648 16.2 10.5 16.2C7.35198 16.2 4.8 13.648 4.8 10.5C4.8 7.35198 7.35198 4.8 10.5 4.8C13.648 4.8 16.2 7.35198 16.2 10.5ZM15.049 16.4634C13.7873 17.4274 12.2105 18 10.5 18C6.35786 18 3 14.6421 3 10.5C3 6.35786 6.35786 3 10.5 3C14.6421 3 18 6.35786 18 10.5C18 12.2106 17.4273 13.7874 16.4633 15.0492L20.7056 19.2915C21.0961 19.682 21.0961 20.3152 20.7056 20.7057C20.315 21.0962 19.6819 21.0962 19.2913 20.7057L15.049 16.4634Z" fill="#BCCCDC"/>
</svg>
