<svg height="496pt" viewBox="-8 0 496 496.008" width="496pt" xmlns="http://www.w3.org/2000/svg"><path d="m379.46875 8.007812h-355.457031c-8.839844 0-16 7.160157-16 16v414.992188c0 8.839844 7.160156 16 16 16h355.457031c8.839844 0 16-7.160156 16-16v-414.992188c0-8.839843-7.167969-16-16-16zm0 0" fill="#fff"/><path d="m379.46875 463h-355.464844c-13.230468 0-23.99999975-10.769531-23.99999975-24v-415c0-13.230469 10.76953175-24 23.99999975-24h355.464844c13.230469 0 24 10.769531 24 24v415c0 13.238281-10.769531 24-24 24zm-355.464844-447c-4.414062 0-8 3.585938-8 8v415c0 4.414062 3.585938 8 8 8h355.464844c4.414062 0 8-3.585938 8-8v-415c0-4.414062-3.585938-8-8-8zm0 0" fill="#173851"/><path d="m32.003906 32h339.464844v399h-339.464844zm0 0" fill="#28a7e6"/><path d="m32.003906 32h339.464844v399h-339.464844zm0 0" fill="#45c9a5"/><g fill="#fff"><path d="m73.308594 92.273438h256.855468v16h-256.855468zm0 0"/><path d="m73.308594 179.753906h256.855468v16h-256.855468zm0 0"/><path d="m73.308594 267.246094h213.328125v16h-213.328125zm0 0"/><path d="m73.308594 354.734375h100.152344v16h-100.152344zm0 0"/><path d="m393.8125 257.542969-109.113281 68.199219 34.664062 56.027343 109.121094-68.203125zm0 0"/></g><path d="m319.363281 389.761719c-.605469 0-1.214843-.074219-1.816406-.210938-2.078125-.488281-3.863281-1.765625-4.992187-3.574219l-34.671876-56.015624c-2.3125-3.746094-1.167968-8.664063 2.5625-10.992188l109.117188-68.199219c1.816406-1.136719 4.027344-1.488281 6.058594-1.007812 2.078125.484375 3.863281 1.773437 4.992187 3.574219l34.671875 56.023437c2.3125 3.753906 1.167969 8.664063-2.5625 10.992187l-109.117187 68.191407c-1.28125.800781-2.753907 1.21875-4.242188 1.21875zm-23.679687-61.449219 26.25 42.414062 95.550781-59.71875-26.25-42.421874zm0 0" fill="#173851"/><path d="m410.085938 225.527344-12.074219 7.542968c-7.703125 4.816407-10.0625 14.992188-5.273438 22.738282l36.824219 59.496094c4.792969 7.742187 14.921875 10.109374 22.625 5.296874l12.074219-7.546874c7.703125-4.816407 10.0625-14.992188 5.269531-22.734376l-36.824219-59.496093c-4.792969-7.734375-14.917969-10.113281-22.621093-5.296875zm0 0" fill="#fff"/><path d="m443.554688 331.105469c-1.855469 0-3.726563-.21875-5.574219-.648438-6.367188-1.488281-11.777344-5.367187-15.214844-10.9375l-36.824219-59.503906c-7.105468-11.464844-3.585937-26.589844 7.832032-33.726563l12.070312-7.546874c5.542969-3.460938 12.105469-4.542969 18.449219-3.070313 6.367187 1.488281 11.773437 5.375 15.214843 10.945313l36.832032 59.496093c7.097656 11.472657 3.574218 26.597657-7.832032 33.726563l-12.070312 7.542968c-3.9375 2.457032-8.371094 3.722657-12.882812 3.722657zm-29.230469-98.792969-12.070313 7.542969c-3.96875 2.488281-5.1875 7.753906-2.722656 11.746093l36.832031 59.503907c1.183594 1.925781 3.058594 3.261719 5.242188 3.78125 2.183593.519531 4.445312.136719 6.335937-1.054688l12.070313-7.542969c3.96875-2.488281 5.183593-7.753906 2.710937-11.746093l-36.832031-59.496094c-1.183594-1.925781-3.054687-3.269531-5.246094-3.78125-2.175781-.503906-4.417969-.128906-6.320312 1.046875zm0 0" fill="#173851"/><path d="m260.996094 318.703125-12.070313 7.542969c-7.707031 4.816406-10.066406 14.992187-5.273437 22.738281l36.824218 59.496094c4.792969 7.742187 14.917969 10.113281 22.625 5.296875l12.070313-7.546875c7.703125-4.816407 10.0625-14.992188 5.273437-22.734375l-36.824218-59.496094c-4.792969-7.734375-14.921875-10.113281-22.625-5.296875zm0 0" fill="#fff"/><path d="m294.476562 424.289062c-1.855468 0-3.730468-.21875-5.578124-.648437-6.375-1.488281-11.78125-5.375-15.222657-10.945313l-36.824219-59.503906c-7.09375-11.457031-3.574218-26.582031 7.832032-33.726562l12.082031-7.542969c5.527344-3.464844 12.0625-4.539063 18.429687-3.074219 6.367188 1.488282 11.777344 5.375 15.226563 10.945313l36.832031 59.503906c7.09375 11.472656 3.574219 26.597656-7.832031 33.726563l-12.074219 7.542968c-3.925781 2.449219-8.359375 3.722656-12.871094 3.722656zm-24.816406-100.074218c-1.542968 0-3.070312.433594-4.425781 1.273437 0 0 0 0-.007813.007813l-12.070312 7.535156c-3.960938 2.480469-5.175781 7.746094-2.710938 11.738281l36.832032 59.503907c1.183594 1.925781 3.054687 3.269531 5.246094 3.78125 2.167968.511718 4.433593.144531 6.328124-1.046876l12.074219-7.542968c3.964844-2.488282 5.183594-7.753906 2.710938-11.746094l-36.832031-59.503906c-1.191407-1.925782-3.058594-3.269532-5.25-3.78125-.621094-.144532-1.253907-.21875-1.894532-.21875zm-8.664062-5.511719h.078125zm0 0" fill="#173851"/><path d="m461.644531 480.617188-7.839843 4.902343c-7.703126 4.816407-17.832032 2.441407-22.625-5.296875l-75.121094-121.382812 35.738281-22.335938 75.117187 121.382813c4.792969 7.730469 2.433594 17.914062-5.269531 22.730469zm0 0" fill="#f86252"/><path d="m445.171875 496.007812c-1.855469 0-3.726563-.207031-5.574219-.648437-6.371094-1.488281-11.777344-5.367187-15.21875-10.933594l-75.125-121.386719c-2.3125-3.75-1.167968-8.664062 2.558594-10.992187l35.742188-22.335937c1.816406-1.136719 4-1.488282 6.066406-1.007813 2.070312.488281 3.855468 1.777344 4.984375 3.578125l75.117187 121.382812c7.105469 11.464844 3.585938 26.59375-7.832031 33.726563l-7.832031 4.898437c-3.941406 2.453126-8.375 3.71875-12.886719 3.71875zm-78.128906-134.617187 70.9375 114.609375c1.183593 1.929688 3.054687 3.265625 5.238281 3.785156 2.183594.503906 4.441406.136719 6.335938-1.058594l7.832031-4.894531c3.96875-2.488281 5.183593-7.753906 2.722656-11.742187l-70.898437-114.554688zm0 0" fill="#173851"/></svg>